<svg width="32" height="32" viewBox="0 0 32 32" fill="none" xmlns="http://www.w3.org/2000/svg">
<g clip-path="url(#clip0)">
<path d="M28.432 21.139C28.41 18.8 28.619 13.576 28.685 11.764C28.751 9.952 26.119 7.753 26.119 7.753C26.119 7.753 26.318 6.959 26.83 7.02C27.342 7.081 27.449 7.177 27.785 6.978C27.953 6.878 28.053 6.431 28.223 6.322C28.395 6.213 28.127 5.868 28.127 5.868C28.127 5.868 28.39 5.912 28.409 5.806C28.438 5.648 28.237 5.509 28.301 5.259C28.363 5.009 28.801 5.134 28.879 4.837C28.754 4.289 28.217 3.238 28.525 3.124C28.835 3.01 29.287 3.162 29.693 3.009C30.096 2.856 30.162 2.337 29.818 1.634C29.473 0.931 28.006 0.00900002 26.676 0.00900002C23.435 -0.178 21.284 2.572 22.82 5.186C23.544 6.624 22.99 7.774 21.49 7.587C19.99 7.4 14.018 11.668 12.226 11.45C11.337 11.343 10.846 11.343 10.581 11.453C10.551 11.456 10.519 11.459 10.488 11.464L9.47 8.853C9.965 8.863 10.925 8.789 11.553 8.136C12.428 7.228 12.903 5.808 10.027 4.599C9.652 4.46 9.615 3.375 10.102 2.571C8.928 2.27 8.634 3.799 9.071 4.601C9.507 5.403 10.034 5.879 10.257 6.475C10.48 7.071 9.138 7.275 9.138 7.275L8.294 6.036L9.414 5.664L6.73 3.112L6.728 3.108V3.11L6.724 3.106L6.728 3.116L6.705 6.821L7.752 6.271L8.057 7.737C8.057 7.737 6.98 8.562 6.704 7.989C6.43 7.417 6.453 6.706 6.178 5.835C5.903 4.964 4.597 4.116 4 5.17C4.917 5.377 5.674 6.156 5.513 6.523C4.39 9.434 5.742 10.075 7.003 10.075C7.899 10.075 8.615 9.444 8.955 9.079L9.959 11.65C9.775 11.772 9.658 11.931 9.658 12.109C9.658 12.402 9.963 12.646 10.385 12.742L12.348 17.777C10.37 17.535 8.012 18.662 8.012 18.662C8.012 18.662 3.061 14.812 0.677002 17.882C5.031 19.396 5.812 20.954 5.812 23.245C5.812 25.538 6.362 31.725 13.925 31.909C21.487 32.093 23.279 24.323 23.366 20.93C23.452 17.536 26.116 12.396 26.147 13.864C26.532 14.477 25.903 23.752 27.86 23.93C28.915 24.114 30.288 24.054 31.204 24.038C31.581 22.432 28.454 23.477 28.432 21.139ZM11.862 24.759C9.291 24.311 9.78 21.428 13.023 19.507L14.653 23.688C13.873 24.44 12.946 24.949 11.862 24.759ZM18.522 18.191C17.752 19.4 16.143 22.003 15.078 23.231L13.516 19.229C13.776 19.094 14.047 18.965 14.336 18.846C13.986 18.367 13.522 18.08 13.005 17.916L10.992 12.759C11.054 12.751 11.119 12.751 11.177 12.738C13.171 13.438 17.791 11.85 19.669 10.442C21.321 10.351 19.292 16.982 18.522 18.191Z" fill="#FFFAEA"/>
</g>
<defs>
<clipPath id="clip0">
<rect width="31.912" height="31.912" fill="white"/>
</clipPath>
</defs>
</svg>
