<svg width="32" height="32" viewBox="0 0 32 32" fill="none" xmlns="http://www.w3.org/2000/svg">
<g clip-path="url(#clip0)">
<path d="M28.819 28.787C28.819 28.787 29.323 26.964 29.126 26.308C28.968 25.784 27.552 22.586 26.712 20.537C26.458 19.833 26.267 19.216 26.261 18.894C26.241 17.876 27.574 15.285 27.278 13.554C26.978 11.825 23.878 9.557 24.296 9.2C24.714 8.842 28.614 9.017 28.919 8.603C29.226 8.189 29.755 7.707 29.398 7.082C29.041 6.457 25.578 4.813 25.398 4.635C25.219 4.456 24.951 1.355 22.863 1.654C23.518 5.8 22.715 7.321 19.164 8.633C18.657 9.142 18.801 11.062 19.029 11.92C19.864 16.518 13.269 14.483 11.185 14.514C9.051 14.393 7.926 14.143 5.976 15.432C4.539 16.379 3.466 15.734 2.716 15.109C1.403 17.171 5.039 17.068 4.841 17.639C4.256 18.777 4.601 21.001 4.778 21.359C4.997 21.797 5.075 22.465 5.007 22.687C4.739 23.551 2.622 25.625 2.622 26.705C2.622 27.786 2.775 30.419 2.775 30.419C2.775 30.419 2.614 31.945 2.936 31.945C3.257 31.945 5.004 31.885 5.421 31.885C5.838 31.885 5.212 30.501 4.356 30.413C4.356 30.084 4.552 26.841 4.552 26.841L7.069 23.816C7.069 23.816 7.359 26.784 7.76 27.374C8.162 27.963 9.561 30.635 9.561 30.635C9.561 30.635 9.473 31.755 9.737 31.755C10.001 31.755 11.454 31.717 11.981 31.717C12.507 31.717 11.863 30.27 11.05 30.357C10.742 29.874 10.05 27.199 9.845 26.609C9.64 26.019 9.585 23.963 9.613 23.082C9.639 22.199 10.524 23.734 14.676 23.707C18.826 23.68 20.176 23.082 20.176 23.082C20.176 23.082 21.08 30.029 21.143 30.532C21.227 31.08 21.053 31.673 21.336 31.673C21.62 31.673 23.303 31.685 23.789 31.685C24.276 31.685 23.883 30.081 22.748 30.083C22.527 29.549 22.352 26.255 22.352 26.255L24.164 22.928C24.164 22.928 26.964 25.774 27.359 26.521C27.755 27.267 27.568 29.277 27.568 29.277C27.568 29.277 27.195 29.715 27.087 30.002C27.358 30.438 28.042 30.959 28.644 31.563C29.435 31.386 29.493 30.351 29.304 29.761C29.115 29.166 28.819 28.787 28.819 28.787Z" fill="#FFFAEA"/>
<path d="M18.631 6.661C20.887 5.445 19.293 2.868 18.817 3.166C19.076 4.182 18.934 5.791 17.446 5.691C15.954 5.59 15.904 2.619 18.389 1.962C20.873 1.307 22.932 6.089 17.982 7.699C21.223 7.938 22.915 6.446 22.577 2.528C22.239 -1.39 14.064 -0.594 13.926 3.821C13.784 8.236 17.697 7.079 18.631 6.661Z" fill="#FFFAEA"/>
</g>
<defs>
<clipPath id="clip0">
<rect width="31.945" height="31.944" fill="white"/>
</clipPath>
</defs>
</svg>
