<svg width="32" height="32" viewBox="0 0 32 32" fill="none" xmlns="http://www.w3.org/2000/svg">
<g clip-path="url(#clip0)">
<path d="M24.428 18.976C24.335 17.681 19.417 15.018 16.305 14.829C16.286 14.827 16.271 14.811 16.252 14.811C13.21 14.672 7.671 17.591 7.572 18.965C7.477 20.281 11.67 23.436 15.717 23.569C15.727 23.571 15.738 23.587 15.748 23.588C19.951 23.734 24.526 20.349 24.428 18.976Z" fill="#FFFAEA"/>
<path d="M27.694 17.642C27.846 17.573 28.164 17.161 28.11 16.017C28.059 14.874 27.413 14.241 26.977 14.28C26.542 14.319 23.104 14.609 22.934 16.32C22.766 18.031 27.544 17.713 27.694 17.642Z" fill="#FFFAEA"/>
<path d="M28.526 15.961C28.526 17.218 28.538 16.937 28.526 17.529C28.516 18.122 30.84 18.166 31.664 20.436C32.868 18.224 28.526 14.705 28.526 15.961Z" fill="#FFFAEA"/>
<path d="M25.223 18.181C24.895 18.589 25.301 19.027 25.199 19.285C25.095 19.546 24.303 20.497 24.161 20.888C24.015 21.28 27.216 22.458 27.929 21.577C28.643 20.696 28.619 20.639 28.758 19.953C28.893 19.267 25.549 17.771 25.223 18.181Z" fill="#FFFAEA"/>
<path d="M29.102 20.616C28.78 21.052 27.893 22.006 28.251 22.154C29.615 22.102 31.27 23.778 31.878 25.29C32.43 24.685 31.046 19.433 29.102 20.616Z" fill="#FFFAEA"/>
<path d="M25.534 22.861C25.235 22.413 24.266 21.462 23.819 21.325C23.371 21.188 20.022 23.167 21.112 23.994C22.018 24.527 23.578 24.261 24.362 24.414C24.896 23.968 25.646 23.295 25.534 22.861Z" fill="#FFFAEA"/>
<path d="M25.874 23.588C25.492 23.828 24.893 24.517 24.67 24.791C26.266 27.86 26.524 28.02 26.518 29.671C27.966 29.562 27.561 23.728 25.874 23.588Z" fill="#FFFAEA"/>
<path d="M21.552 16.098C21.764 16.112 22.997 15.843 23.012 15.177C23.026 14.511 21.438 13.774 20.744 13.915C20.05 14.056 18.598 14.543 19.115 14.814C19.629 15.085 21.34 16.083 21.552 16.098Z" fill="#FFFAEA"/>
<path d="M23.817 11.209C21.75 11.11 21.042 13.731 21.678 13.816C22.315 13.901 23.037 14.595 23.59 14.581C24.143 14.567 24.811 11.209 23.817 11.209Z" fill="#FFFAEA"/>
<path d="M24.414 10.884C24.797 11.011 29.485 9.935 28.962 5.174C27.927 6.506 25.335 7.809 24.414 7.143C23.493 6.477 23.451 5.401 24.117 2.34C17.598 4.48 22.6 10.147 22.827 10.529C23.055 10.912 24.032 10.756 24.414 10.884Z" fill="#FFFAEA"/>
<path d="M3.888 16.007C3.836 17.15 4.152 17.562 4.304 17.632C4.456 17.701 9.235 18.021 9.064 16.309C8.894 14.599 5.456 14.308 5.022 14.269C4.587 14.23 3.939 14.865 3.888 16.007Z" fill="#FFFAEA"/>
<path d="M3.472 17.517C3.462 16.923 3.472 17.205 3.472 15.951C3.472 14.697 -0.867999 18.213 0.336001 20.43C1.158 18.155 3.482 18.113 3.472 17.517Z" fill="#FFFAEA"/>
<path d="M7.84099 20.876C7.69699 20.486 6.90699 19.535 6.80299 19.272C6.69899 19.012 7.10499 18.578 6.77799 18.168C6.44999 17.76 3.10699 19.254 3.24399 19.939C3.38199 20.627 3.35999 20.683 4.07299 21.564C4.78599 22.447 7.98499 21.267 7.84099 20.876Z" fill="#FFFAEA"/>
<path d="M0.122998 25.279C0.731998 23.766 2.386 22.092 3.75 22.141C4.108 21.995 3.222 21.037 2.9 20.604C0.953998 19.424 -0.430002 24.677 0.122998 25.279Z" fill="#FFFAEA"/>
<path d="M8.181 21.313C7.733 21.451 6.764 22.402 6.467 22.848C6.354 23.284 7.104 23.952 7.638 24.403C8.422 24.248 9.98 24.514 10.888 23.984C11.978 23.156 8.629 21.181 8.181 21.313Z" fill="#FFFAEA"/>
<path d="M6.126 23.577C4.44 23.72 4.034 29.554 5.483 29.66C5.474 28.013 5.733 27.848 7.33 24.781C7.108 24.505 6.509 23.815 6.126 23.577Z" fill="#FFFAEA"/>
<path d="M8.988 15.166C9.002 15.832 10.235 16.101 10.447 16.087C10.659 16.072 12.37 15.074 12.884 14.804C13.398 14.534 11.949 14.047 11.255 13.906C10.561 13.765 8.974 14.5 8.988 15.166Z" fill="#FFFAEA"/>
<path d="M10.32 13.806C10.958 13.721 10.249 11.1 8.18 11.2C7.188 11.2 7.85399 14.557 8.40699 14.571C8.95999 14.585 9.68299 13.891 10.32 13.806Z" fill="#FFFAEA"/>
<path d="M7.586 10.873C7.968 10.745 8.946 10.901 9.173 10.519C9.399 10.136 14.401 4.469 7.883 2.329C8.549 5.39 8.507 6.467 7.586 7.133C6.665 7.798 4.072 6.495 3.038 5.163C2.514 9.924 7.203 11 7.586 10.873Z" fill="#FFFAEA"/>
</g>
<defs>
<clipPath id="clip0">
<rect width="32" height="32" fill="white"/>
</clipPath>
</defs>
</svg>
