<svg width="32" height="32" viewBox="0 0 32 32" fill="none" xmlns="http://www.w3.org/2000/svg">
<g clip-path="url(#clip0)">
<path d="M29.452 9.632C29.89 8.152 31.268 5.845 28.05 1.993C24.827 -1.861 17.136 0.142 20.196 5.695C20.702 1.757 24.315 2.145 26.335 4.568C27.093 5.58 26.524 7.209 26.524 7.209C26.524 7.209 22.856 6.368 22.721 11.112C22.666 12.133 21.379 13.68 21.272 13.757C18.987 15.358 13.193 13.435 7.833 13.816C3.057 13.867 0.847003 16.535 1.837 19.761C2.456 20.049 2.761 17.339 3.082 17.476C3.404 17.611 2.523 19.126 2.701 19.761C2.879 20.398 3.539 22.396 3.285 23.216C3.031 24.038 1.022 26.004 1.022 27.029C1.022 28.054 1.168 30.55 1.168 30.55C1.168 30.55 1.014 32 1.32 32C1.626 32 3.283 31.945 3.678 31.945C4.073 31.945 3.48 30.632 2.667 30.549C2.667 30.237 2.854 27.16 2.854 27.16L5.241 24.288C5.241 24.288 5.516 27.103 5.897 27.663C6.279 28.224 7.605 30.757 7.605 30.757C7.605 30.757 7.522 31.82 7.772 31.82C8.022 31.82 9.397 31.841 9.897 31.841C10.397 31.841 9.789 30.409 9.018 30.492C8.726 30.034 8.07 27.496 7.874 26.937C7.68 26.375 7.781 25.131 7.807 24.292C7.833 23.453 8.75 24.094 12.689 24.066C16.627 24.041 17.502 23.628 17.502 23.628C17.502 23.628 18.533 30.177 18.592 30.654C18.67 31.174 18.506 31.736 18.777 31.736C19.048 31.736 20.71 31.731 21.171 31.731C21.634 31.731 21.193 30.225 20.118 30.227C19.907 29.724 19.743 26.599 19.743 26.599L21.462 23.443C21.462 23.443 24.118 26.142 24.493 26.849C24.868 27.558 24.69 29.463 24.69 29.463C24.69 29.463 24.336 29.88 24.231 30.151C24.489 30.563 25.139 31.059 25.71 31.63C26.46 31.463 26.515 30.482 26.335 29.922C26.157 29.363 25.878 29.005 25.878 29.005C25.878 29.005 26.357 27.276 26.169 26.651C25.981 26.026 23.898 21.38 23.398 19.944C22.898 18.506 25.796 13.715 25.796 13.715C25.796 13.715 29.784 15.926 30.858 14.917C31.551 14.284 29.015 11.113 29.452 9.632Z" fill="#FFFAEA"/>
</g>
<defs>
<clipPath id="clip0">
<rect width="32" height="32" fill="white"/>
</clipPath>
</defs>
</svg>
