<svg width="32" height="32" viewBox="0 0 32 32" fill="none" xmlns="http://www.w3.org/2000/svg">
<g clip-path="url(#clip0)">
<path d="M16.207 12.926C14.939 15.905 21.404 16.158 24.32 17.616C27.236 19.074 28.567 22.117 29.262 22.117C32.875 17.299 27.236 10.707 27.236 10.707C27.236 10.707 25.082 10.073 24.635 7.981C24.192 5.889 26.156 2.783 25.839 4.368C25.525 5.952 27.805 6.777 28.06 7.854C28.313 8.931 27.997 10.707 27.997 10.707C27.997 10.707 34.145 14.447 30.343 23.258C31.801 29.154 28.571 29.154 28.571 29.154C28.571 29.154 29.647 31.246 26.605 31.246C23.562 31.246 21.789 31.246 19.062 31.246C16.334 31.246 18.299 28.964 19.503 28.964C20.707 28.964 21.688 29.002 22.165 28.964C22.006 28.975 18.51 28.693 19.254 26.342C14.791 26.708 8.982 24.907 8.982 24.907C8.982 24.907 6.159 31.675 4.067 31.611C1.975 31.549 0.286 31.736 0.442 30.611C0.786 28.361 3.88 30.517 4.164 26.236C4.354 23.765 5.748 21.925 5.748 21.925C5.748 21.925 1.882 19.325 3.15 11.847C2.712 11.883 1.502 12.1 1.121 11.339C0.741 10.579 1.121 9.692 1.121 9.692C1.121 9.692 -0.494 7.503 0.203 6.235C0.899 4.966 3.758 4.591 5.089 4.464C5.631 -0.703 7.914 -0.615 11.464 0.907C17.293 0.212 18.795 9.217 16.207 12.926Z" fill="#FFFAEA"/>
</g>
<defs>
<clipPath id="clip0">
<rect width="31.611" height="31.611" fill="white"/>
</clipPath>
</defs>
</svg>
