<svg width="30" height="30" viewBox="0 0 30 30" fill="none" xmlns="http://www.w3.org/2000/svg">
<g clip-path="url(#clip0)">
<path d="M1.556 25.055C1.556 25.461 1.15 29.264 2.212 29.264C3.274 29.264 2.695 27.047 3.337 27.293C3.979 27.541 9.993 29.988 11.201 29.908C12.409 29.828 12.425 28.215 12.42 27.871C13.274 28.543 14.556 28.264 14.587 27.918C14.618 26.996 12.931 26.465 12.889 25.699C12.846 24.933 18.952 24.033 17.535 21.492C16.285 19.033 12.294 18.396 11.951 17.492C11.607 16.586 11.472 13.703 11.472 13.703C11.472 13.703 12.76 13.278 13.058 12.597C13.356 11.916 12.462 11.333 12.462 11.333C12.462 11.333 12.784 11.317 13.279 11.291L19.864 19.826L19.889 19.096C20.235 15.893 23.701 15.668 23.778 13.444C23.864 11.061 22.674 11.402 22.674 9.969C22.674 9.965 22.674 9.959 22.674 9.954H22.68C22.68 9.94 22.68 9.926 22.677 9.912H25.766V10.857L28.432 9.708L25.766 8.843V9.503H22.705C22.887 8.467 23.856 8.542 23.778 6.381C23.695 4 19.724 3.915 19.867 0C19.846 0.029 19.83 0.057 19.808 0.085L19.822 0L12.66 8.949L11.276 8.804C10.717 8.421 10.147 8.03 9.774 7.774C9.787 7.758 9.712 7.231 9.919 7.152C10.861 7.181 11.107 7.133 10.873 6.481C10.903 6.454 11.071 6.344 11.107 6.266C11.143 6.188 11.059 6.169 11.059 6.169C11.059 6.169 11.121 6.172 11.165 6.101C11.21 6.03 11.087 5.75 11.087 5.75C11.087 5.75 11.4 5.681 11.468 5.564C11.536 5.447 10.918 4.728 10.941 4.597C10.964 4.467 11.068 4.406 11.097 4.373C11.126 4.34 11.196 3.987 10.814 3.426C10.692 3.247 10.541 3.054 10.338 2.888C10.585 2.672 11.068 2.205 11.037 1.885C10.995 1.457 8.604 0.507 6.744 2.5C4.884 4.494 7.196 6.531 7.196 6.531L7.338 6.413C7.554 6.706 7.763 6.906 7.692 7.009C7.692 7.009 5.645 7.841 5.431 8.783C5.216 9.725 4.91 11.92 4.91 12.388C4.91 12.856 4.052 13.14 4.264 14.034C4.476 14.928 7.031 16.801 7.145 16.937C7.259 17.075 6.194 17.866 6.525 19.45C6.963 21.544 8.733 21.818 9.244 22.669C9.755 23.522 10.144 26.436 9.807 26.868C9.807 26.868 3.953 25.933 3.328 24.95C2.716 24.247 1.556 24.648 1.556 25.055ZM12.431 21.2C13.369 21.355 15.025 22.341 15.025 22.341C15.025 22.341 13.023 22.87 12.806 23.169C12.647 22.697 12.478 21.45 12.431 21.2ZM19.131 1.832C19.064 3.968 22.277 4.811 22.277 6.383C22.277 7.699 21.89 8.087 21.635 8.754C21.099 8.885 20.467 9.186 20.079 9.323C19.628 9.482 16.785 9.559 14.464 9.429C14.464 9.429 14.179 9.347 13.95 9.222C13.721 9.097 13.27 9.014 13.27 9.014L19.131 1.832ZM19.132 18.075L13.891 11.261C15.797 11.161 19.022 10.984 19.752 10.896C20.222 10.839 20.881 10.619 21.445 10.321C21.601 11.592 22.275 11.713 22.275 13.446C22.275 15.037 18.98 15.879 19.132 18.075Z" fill="#FFFAEA"/>
</g>
<defs>
<clipPath id="clip0">
<rect width="29.91" height="29.91" fill="white"/>
</clipPath>
</defs>
</svg>
