<svg width="32" height="32" viewBox="0 0 32 32" fill="none" xmlns="http://www.w3.org/2000/svg">
<g clip-path="url(#clip0)">
<path d="M12.48 11.539C11.871 10.985 8.834 8.064 6.473 7.549C5.746 5.79 4.888 5.747 4.888 5.747C4.888 5.747 6.261 2.487 0.856001 2.658C4.225 4.292 3.553 4.699 3.086 5.833C1.162 6.34 2.028 8.872 1.626 9.351C1.226 9.83 -0.259999 10.338 0.0400006 11.238C0.341001 12.138 3.472 12.482 3.987 12.697C5.96 13.468 4.758 16.687 5.402 17.886C6.046 19.087 6.303 21.876 6.303 21.876C6.303 21.876 5.615 24.023 5.542 24.67C5.411 25.524 5.55 26.111 5.442 26.712C5.025 27.211 4.676 27.98 4.676 27.98L6.645 28.011C6.645 28.011 6.833 27.129 6.645 26.726C6.688 26.252 7.696 22.414 8.499 22.498C8.896 22.369 9.519 26.81 8.961 26.81C8.291 27.025 8.232 28.137 8.232 28.137L10.003 28.164C10.003 28.164 9.946 27.279 10.3 27.211C10.558 26.695 10.436 25.08 10.419 24.878C10.402 24.676 10.204 22.261 10.204 22.261C10.204 22.261 12.435 20.674 13.121 20.889C16.082 21.618 21.294 19.904 21.788 19.561C21.499 19.661 22.859 22.478 22.816 22.95C22.773 23.422 21.497 25.585 21.263 26.133C20.548 26.529 21.013 27.326 21.013 27.326L22.611 27.37C22.611 27.37 22.631 26.471 22.902 26.467C23.173 26.463 23.421 24.705 23.759 24.153C24.099 23.597 25.39 21.65 24.788 21.422C24.185 21.194 28.049 25.526 28.349 26.041C28.521 26.334 28.413 27.371 28.288 28.205C27.85 28.467 28.092 29.344 28.092 29.344H29.336C29.336 29.344 29.413 28.55 29.661 28.451C29.724 28.274 29.849 27.929 29.849 27.929C29.849 27.929 29.745 24.217 27.703 22.051C28.559 19.349 27.229 14.716 27.229 14.716C27.229 14.716 28.903 15.53 28.688 16.217C28.473 18.107 29.975 17.618 29.846 19.523C29.545 21.067 31.262 21.625 31.992 22.094C31.992 21.408 31.691 20.121 30.677 19.651C30.834 17.463 29.547 16.906 29.59 16.174C29.72 12.57 27.588 13.36 26.416 13.042C25.35 12.313 16.168 12.827 16.168 12.827C16.168 12.827 13.521 12.052 12.48 11.539Z" fill="#FFFAEA"/>
</g>
<defs>
<clipPath id="clip0">
<rect width="31.994" height="31.994" fill="white"/>
</clipPath>
</defs>
</svg>
