<svg width="32" height="32" viewBox="0 0 32 32" fill="none" xmlns="http://www.w3.org/2000/svg">
<path d="M30.271 20.987L26.964 10.678H26.126V10.114C27.765 9.71 27.793 8.094 27.793 8.094C27.793 8.094 27.172 8.823 26.126 9.106V8.66H25.472V9.215C25.445 9.216 25.42 9.223 25.392 9.224C23.902 9.26 23.23 6.788 21.355 6.788C19.609 6.788 17.659 7.827 16.398 7.971V5.158C17.29 5.019 17.972 4.257 17.972 3.327C17.974 2.301 17.14 1.468 16.113 1.468C15.087 1.468 14.254 2.301 14.254 3.327C14.254 4.307 15.016 5.102 15.979 5.174V7.95C14.718 7.751 12.847 6.788 11.163 6.788C9.288 6.788 8.618 9.26 7.127 9.224C7.006 9.22 6.895 9.201 6.781 9.186V8.66H6.127V9.033C5.24 8.711 4.727 8.095 4.727 8.095C4.727 8.095 4.755 9.526 6.127 10.029V10.678H5.29L1.925 20.988H0C0 20.988 1.381 23.627 6.327 23.627C11.273 23.627 12.654 20.988 12.654 20.988H10.925L7.62 10.679H6.781V10.183C6.913 10.197 7.051 10.205 7.2 10.205C9.637 10.205 10 8.66 11.346 8.66C12.557 8.66 13.976 10.164 15.725 10.468C15.8 10.489 16.167 10.464 16.057 10.491L16 16.268L14.889 18.518L14.927 25.296H11.873V26.495L9.418 30.532H23.381L20.381 26.44V25.294H17.709V18.578L16.584 16.214L16.583 10.477C16.684 10.476 16.68 10.498 16.796 10.467C18.545 10.163 19.964 8.659 21.175 8.659C22.522 8.659 22.884 10.204 25.321 10.204C25.377 10.204 25.423 10.198 25.473 10.196V10.676H24.637L21.272 20.985H19.346C19.346 20.985 20.727 23.624 25.673 23.624C30.619 23.624 32 20.987 32 20.987H30.271ZM6.127 20.987H2.614L5.764 11.334H6.127V20.987V20.987ZM7.143 11.333L10.239 20.985H6.781V11.333H7.143ZM25.473 20.987H21.959L25.109 11.334H25.472V20.987H25.473ZM26.127 20.987V11.333H26.488L29.584 20.985L26.127 20.987Z" fill="#FFFAEA"/>
</svg>
