<svg width="32" height="32" viewBox="0 0 32 32" fill="none" xmlns="http://www.w3.org/2000/svg">
<g clip-path="url(#clip0)">
<path d="M6.588 20.578C6.229 18.115 6.186 15.25 6.186 15.25C6.186 15.25 8.064 12.025 10.081 11.311C10.753 11.175 8.17 13.549 9.275 13.773C10.379 13.998 13.93 10.997 14.915 10.906C15.901 10.818 18.945 11.981 21.811 11.49C24.676 10.997 29.959 6.252 29.915 5.625C29.869 4.998 27.498 6.297 27.498 6.297C27.498 6.297 29.197 4.237 28.706 3.163C28.212 2.087 20.152 1.19 18.142 1.236C16.125 -2.301 11.025 2.853 10.796 3.071C10.57 3.291 12.889 2.948 12.889 3.307C12.889 3.664 7.662 8.085 6.678 10.817C5.694 13.549 3.365 15.069 0.59 13.906C-0.932 16.861 4.261 16.861 4.261 16.861C4.261 16.861 4.708 21.068 6.588 20.578ZM25.415 3.295C25.797 3.295 26.107 3.606 26.107 3.99C26.107 4.372 25.795 4.684 25.415 4.684C25.03 4.684 24.722 4.371 24.722 3.99C24.721 3.605 25.03 3.295 25.415 3.295Z" fill="#FFFAEA"/>
<path d="M27.739 15.139C27.739 15.139 27.291 10.932 25.411 11.423C25.767 13.885 25.812 16.753 25.812 16.753C25.812 16.753 23.931 19.977 21.916 20.691C21.244 20.825 23.827 18.452 22.724 18.227C21.619 18.003 18.066 21.001 17.08 21.091C16.096 21.182 13.052 20.019 10.187 20.509C7.32 21.001 2.038 25.747 2.083 26.374C2.127 27.001 4.5 25.702 4.5 25.702C4.5 25.702 2.8 27.763 3.292 28.835C3.783 29.911 11.842 30.809 13.857 30.763C15.872 34.298 20.974 29.146 21.199 28.927C21.427 28.708 19.105 29.05 19.105 28.692C19.105 28.335 24.333 23.915 25.316 21.182C26.302 18.452 28.628 16.93 31.407 18.091C32.934 15.139 27.739 15.139 27.739 15.139ZM6.584 28.705C6.2 28.705 5.89 28.393 5.89 28.01C5.89 27.627 6.201 27.319 6.584 27.319C6.967 27.319 7.279 27.631 7.279 28.01C7.28 28.395 6.968 28.705 6.584 28.705Z" fill="#FFFAEA"/>
</g>
<defs>
<clipPath id="clip0">
<rect width="31.998" height="31.998" fill="white"/>
</clipPath>
</defs>
</svg>
