<svg width="32" height="32" viewBox="0 0 32 32" fill="none" xmlns="http://www.w3.org/2000/svg">
<g clip-path="url(#clip0)">
<path d="M26.595 9.335C25.511 5.386 23.974 -0.138001 15.813 0.00199882C14.259 0.513999 20.199 1.068 19.71 3.008C16.982 1.435 15.376 0.385999 13.452 0.560999C11.529 0.735999 10.703 2.437 10.771 3.667C12.326 4.485 14.333 10.932 14.979 12.295C15.625 13.658 16.749 15.74 17.902 16.37C19.053 16.999 16.305 21.001 13.968 21.103C11.631 21.208 5.739 23.754 5.028 27.081C6.464 25.396 12.113 22.437 14.547 22.525C16.982 22.616 19.314 19.823 19.703 19.027C19.809 22.625 16.235 24.029 13.718 24.09C10.097 24.152 4.661 27.601 5.307 29.712C5.985 27.896 10.529 25.765 13.535 25.624C16.542 25.484 19.335 23.936 20.766 22.668C20.072 25.491 17.463 26.505 14.457 27.04C11.451 27.577 5.412 29.235 5.504 32C6.671 30.282 12.026 28.645 17.805 28.271C23.587 27.897 28.378 16.222 26.595 9.335ZM19.847 1.658C19.847 1.658 24.587 4.305 22.243 8.553C22.763 4.392 19.847 1.658 19.847 1.658ZM23.16 4.615C23.16 4.615 28.323 11.728 22.24 15.223C26.003 10.469 23.16 4.615 23.16 4.615Z" fill="#FFFAEA"/>
<path d="M8.332 13.845C8.379 14.264 8.104 14.806 8.035 15.103C7.966 15.4 7.563 15.294 7.616 15.714C7.668 16.133 8.175 16.293 8.175 16.293C8.175 16.293 7.791 16.521 7.808 16.835C7.896 17.377 8.891 16.923 8.961 17.133C9.031 17.342 9.015 17.175 8.953 17.609C8.891 18.043 8.105 18.181 8.577 19.282C9.197 20.728 15.743 19.894 17.316 16.994C11.688 11.923 11.566 4.478 10.446 4.619C9.327 4.756 8.348 9.44 8.314 10.524C8.279 11.607 7.143 12.289 7.002 13.128C6.863 13.967 8.051 13.618 8.332 13.845ZM8.646 9.978C8.717 9.781 10.306 10.281 10.306 10.507C10.306 10.735 9.135 10.769 8.856 10.735C8.758 10.722 8.415 10.6 8.646 9.978Z" fill="#FFFAEA"/>
</g>
<defs>
<clipPath id="clip0">
<rect width="32.001" height="32.001" fill="white"/>
</clipPath>
</defs>
</svg>
