<svg width="32" height="32" viewBox="0 0 32 32" fill="none" xmlns="http://www.w3.org/2000/svg">
<g clip-path="url(#clip0)">
<path d="M24.232 22.875C23.584 22.702 22.23 22.362 21.865 22.271C21.501 22.175 21.072 20.193 21.072 20.193L20.855 19.125C20.855 19.125 22.459 19.935 22.978 20.193C23.494 20.453 24.249 18.958 24.449 18.763C24.648 18.57 25.301 19.075 25.402 18.763C25.503 18.45 24.797 17.592 24.277 17.767C23.756 17.941 23.238 18.806 22.673 18.763C22.111 18.72 21.027 17.767 21.027 17.767L20.592 15.906C20.592 15.906 21.588 16.859 22.238 16.945C22.888 17.032 23.799 15.733 24.013 14.954C24.23 14.175 24.402 12.67 23.666 12.703C23.839 13.785 22.916 15.733 22.454 15.603C21.991 15.473 18.899 13.225 18.337 13.309C20.026 12.36 19.337 10.58 19.337 10.58C19.337 10.58 21.515 11.403 22.237 11.619C22.96 11.836 23.518 10.698 23.518 10.698C23.518 10.698 24.039 10.715 24.705 10.06C28.817 4.345 22.194 -0.028 21.11 0.362C25.18 4.129 23.579 6.553 23.579 6.553C23.579 6.553 22.67 6.336 22.714 5.817C22.757 5.297 22.373 5.958 20.853 6.813C19.333 7.668 22.152 10.58 22.152 10.58C22.152 10.58 20.896 10.304 20.187 9.845C19.618 9.584 19.687 9.595 18.818 9.325C18.818 9.325 18.536 6.789 17.603 6.918C17.798 7.568 18.051 9.134 17.207 9.199C15.757 9.22 16.249 7.449 16.79 6.886C15.714 6.496 15.23 8.558 15.355 9.074C15.011 9.279 14.476 9.425 13.927 9.743C13.379 10.06 12.177 10.234 12.177 10.234C12.177 10.234 14.997 7.323 13.476 6.467C11.954 5.611 11.571 4.952 11.614 5.471C11.657 5.99 10.748 6.207 10.748 6.207C10.748 6.207 9.146 3.783 13.216 0.017C12.134 -0.374 5.072 5.969 9.623 9.714C10.202 10.018 10.261 10.089 10.462 10.176C10.869 10.219 10.77 11.361 11.926 11.405C13.083 11.448 14.991 10.234 14.991 10.234C14.991 10.234 14.212 12.355 15.9 13.304C15.337 13.221 12.337 15.125 11.874 15.255C11.411 15.385 10.488 13.437 10.662 12.355C9.927 12.322 10.099 13.827 10.315 14.606C10.531 15.385 11.441 16.686 12.09 16.6C12.739 16.512 13.735 15.56 13.735 15.56L13.302 17.42C13.302 17.42 12.22 18.373 11.656 18.416C11.093 18.459 10.574 17.593 10.054 17.42C9.534 17.247 8.9 18.009 8.93 18.416C8.96 18.823 9.683 18.225 9.883 18.416C10.082 18.608 10.838 20.104 11.355 19.846C11.871 19.585 13.476 18.778 13.476 18.778L13.26 19.846C13.26 19.846 12.831 21.829 12.467 21.923C12.102 22.018 10.748 22.358 10.099 22.528C9.45 22.702 9.049 23.123 9.192 23.389C9.335 23.657 9.624 23.221 10.576 23.61C11.528 24 12.914 23.264 13.261 22.702C13.607 22.14 13.713 21.622 13.713 21.622C13.713 21.622 14.467 23.975 15.557 25.057C15.808 25.401 16.634 29.776 14.426 29.862C13.647 29.862 11.763 28.333 11.59 27.121C11.416 25.909 8.342 23.44 8.342 23.44L7.434 24.131C7.434 24.131 10.229 26.626 10.464 27.721C10.699 28.813 10.942 31.016 14.426 31.924C17.91 32.833 19.068 25.072 19.068 25.072H19.066C19.999 23.907 20.621 21.968 20.621 21.968C20.621 21.968 20.726 22.487 21.074 23.049C21.421 23.612 22.803 24.35 23.759 23.958C24.711 23.567 25.219 24.446 25.405 24.218C25.587 23.99 24.88 23.049 24.232 22.875Z" fill="#FFFAEA"/>
<path d="M22.316 5.499C22.316 5.499 20.767 3.263 20.853 1.098C19.036 2.007 20.457 6.668 20.457 6.668L22.316 5.499Z" fill="#FFFAEA"/>
<path d="M13.948 6.293C13.948 6.293 15.29 2.007 13.471 1.098C13.558 3.263 12.085 5.124 12.085 5.124L13.948 6.293Z" fill="#FFFAEA"/>
<path d="M8.11 23.287C8.441 23.006 8.384 22.248 8.11 22.012C7.835 21.773 7.084 21.1 5.96 20.475C6.285 21.233 6.003 22.272 6.198 22.962C6.392 23.653 7.086 23.958 7.432 23.764C7.778 23.569 7.778 23.569 8.11 23.287Z" fill="#FFFAEA"/>
</g>
<defs>
<clipPath id="clip0">
<rect width="31.998" height="31.998" fill="white"/>
</clipPath>
</defs>
</svg>
